<svg xmlns="http://www.w3.org/2000/svg" height="1em" fill="currentColor" fill-rule="evenodd" style="flex:none;line-height:1" viewBox="0 0 85 24"><title>TRAE</title><path d="M20.12 2.012q.003 0 .005.003l.003.005v4.046l-.003.004-.005.003-.005.002h-6.749a.01.01 0 0 0-.01.003l-.004.01v15.898a.01.01 0 0 1-.004.01.01.01 0 0 1-.01.003H8.75a.01.01 0 0 1-.01-.003.01.01 0 0 1-.004-.01V6.088a.01.01 0 0 0-.004-.01l-.01-.003H2.015l-.005-.001-.005-.003A.02.02 0 0 1 2 6.06V2.025l.001-.005q0-.003.003-.005l.01-.004h18.101zm63.123-.01q.005 0 .008.002.004.004.003.009v4.038a.02.02 0 0 1-.005.01.02.02 0 0 1-.01.006l-11.636-.001-.007.004-.004.008a9521 9521 0 0 0 .003 11.846l.008.004h11.634q.008 0 .012.005a.02.02 0 0 1 .005.01v4.039l-.004.009-.008.003H66.981a.01.01 0 0 1-.01-.004.01.01 0 0 1-.003-.01 47458 47458 0 0 1 .002-19.972q0-.003.002-.005l.005-.002h16.266zM34.048 2c.875 0 1.744.026 2.612.164.935.15 1.863.416 2.623 1a3.6 3.6 0 0 1 1.03 1.238q.233.45.388.999.173.61.245 1.342.148 1.496.02 2.966a9 9 0 0 1-.115.76 5.5 5.5 0 0 1-.28.982 4.05 4.05 0 0 1-1.425 1.858 6.4 6.4 0 0 1-1.581.814l-.474.168-.003.005-.002.007q0 .004.002.007l3.954 7.663.002.006-.002.005-.004.004H35.99q-.006 0-.011-.002a.03.03 0 0 1-.01-.01l-3.652-7.153a.03.03 0 0 0-.01-.012.03.03 0 0 0-.015-.004h-4.9l-.008.004-.004.009v7.16a.01.01 0 0 1-.004.009l-.009.003h-4.509l-.003-.003-.003-.005-.001-.005V2.017A.02.02 0 0 1 22.866 2zm23.003.016a.03.03 0 0 1 .01.012l7.851 19.948.001.006-.003.006-.004.003-.006.002h-4.788a.03.03 0 0 1-.014-.005.03.03 0 0 1-.011-.012l-1.91-4.713-.007-.01a.02.02 0 0 0-.013-.004h-8.55a.03.03 0 0 0-.018.005.03.03 0 0 0-.01.015l-1.747 4.706a.03.03 0 0 1-.01.013.03.03 0 0 1-.015.005h-4.995l-.002-.002-.003-.001-.001-.003v-.004l8.108-19.961.007-.008.01-.003h6.105a.03.03 0 0 1 .015.005m22.606 6.843 3.578 3.178.006.008a.03.03 0 0 1 0 .02l-.006.008-3.579 3.177a.025.025 0 0 1-.032 0l-3.367-3.178-.006-.008-.002-.01a.02.02 0 0 1 .008-.017l3.368-3.178a.02.02 0 0 1 .016-.006q.01 0 .016.006m-26.022-2.41-.005.007L51 13.658l-.001.005a.02.02 0 0 0 .007.011l.007.001h5.877l.005-.006.002-.006v-.005l-2.664-7.202-.005-.006-.007-.002h-.578q-.005 0-.008.002zm-26.252-.46-.004.01a2310 2310 0 0 0 .003 4.935q0 .006.004.01a.01.01 0 0 0 .01.004q3.6 0 6.318-.006a4.4 4.4 0 0 0 1.135-.148c.644-.17 1.188-.527 1.364-1.196q.047-.178.05-.564l-.001-.572v-.571a2.5 2.5 0 0 0-.05-.564c-.177-.669-.72-1.026-1.365-1.196a4.5 4.5 0 0 0-1.136-.146q-2.718-.005-6.318 0a.02.02 0 0 0-.01.005z"/></svg>